<?xml version="1.0" standalone="no"?>
<!DOCTYPE svg PUBLIC "-//W3C//DTD SVG 20010904//EN"
 "http://www.w3.org/TR/2001/REC-SVG-20010904/DTD/svg10.dtd">
<svg version="1.0" xmlns="http://www.w3.org/2000/svg"
 width="3333.000000pt" height="3333.000000pt" viewBox="0 0 3333.000000 3333.000000"
 preserveAspectRatio="xMidYMid meet">

<g transform="translate(0.000000,3333.000000) scale(0.100000,-0.100000)"
fill="#000000" stroke="none">
<path d="M18932 29770 c-77 -16 -157 -68 -239 -154 -48 -51 -246 -313 -518
-689 -242 -333 -443 -607 -446 -607 -16 0 -530 674 -811 1064 -88 121 -167
227 -176 234 -23 18 -76 15 -100 -5 -11 -10 -230 -247 -488 -528 -680 -741
-776 -845 -781 -845 -5 0 -626 518 -1162 967 -117 99 -179 141 -252 170 -52
21 -75 24 -143 21 -125 -5 -192 -42 -331 -182 -313 -316 -717 -867 -964 -1319
-24 -42 -46 -79 -51 -82 -8 -5 -162 55 -1283 501 -296 118 -547 214 -558 214
-27 0 -79 -53 -79 -79 0 -18 175 -522 501 -1443 33 -93 87 -246 120 -340 33
-95 74 -209 89 -253 16 -44 182 -516 370 -1050 423 -1201 455 -1291 490 -1390
16 -44 139 -393 273 -775 l245 -695 5 -115 c27 -516 266 -1129 644 -1648 136
-187 270 -342 467 -537 278 -277 579 -522 946 -770 80 -54 148 -103 151 -109
4 -6 26 -94 49 -196 185 -815 295 -1596 350 -2475 18 -277 24 -1088 11 -1395
-57 -1368 -276 -2630 -680 -3925 -145 -467 -412 -1175 -571 -1516 -8 -17 -25
-31 -49 -38 -132 -40 -1070 -393 -1088 -409 -28 -25 -29 -58 -8 -168 50 -260
98 -685 116 -1029 21 -391 1 -983 -44 -1355 l-12 -95 -55 -27 c-87 -44 -194
-66 -427 -88 -120 -11 -245 -25 -278 -31 -258 -44 -416 -143 -499 -310 -71
-144 -67 -82 -79 -1427 l-10 -1214 26 -26 c22 -21 35 -26 69 -24 24 1 338 31
698 66 2312 230 3589 324 5115 378 455 16 1859 16 2255 0 775 -32 1545 -87
1985 -142 238 -30 276 -32 361 -21 116 15 184 43 253 106 104 97 139 200 166
485 8 91 17 181 20 200 3 19 23 195 45 390 153 1346 155 1374 126 1520 -52
253 -201 397 -517 498 -52 17 -186 49 -299 72 -113 22 -232 48 -265 56 -173
43 -330 111 -409 176 l-39 32 6 245 c16 614 101 1207 267 1859 56 217 59 235
45 261 -18 36 -51 48 -145 56 -41 4 -82 8 -90 10 -8 2 -51 7 -94 10 -43 4 -86
8 -95 10 -9 1 -52 6 -95 10 -43 4 -86 8 -95 10 -9 1 -52 6 -95 10 -43 4 -86 8
-95 10 -9 1 -52 6 -95 10 -43 4 -86 8 -95 10 -9 1 -52 6 -95 10 -43 4 -86 8
-95 10 -13 2 -163 17 -195 19 -6 1 -60 154 -122 341 -648 1958 -1039 3948
-1173 5970 -41 618 -46 775 -46 1595 0 744 13 1293 34 1411 5 32 21 48 141
141 220 171 352 289 586 522 275 275 451 480 655 761 358 493 660 1075 847
1635 15 47 35 96 44 110 40 63 417 1258 591 1875 427 1512 755 3033 986 4575
45 295 111 780 111 809 0 11 -12 33 -26 50 -52 62 -4 93 -1023 -649 -514 -374
-939 -680 -944 -680 -5 0 -78 66 -161 148 -294 286 -651 594 -1058 914 -240
188 -327 248 -406 278 -60 23 -153 32 -210 20z m181 -196 c29 -15 75 -42 102
-62 93 -66 580 -458 736 -592 263 -227 678 -613 669 -623 -3 -2 -404 -295
-892 -650 l-888 -646 -113 127 c-261 293 -802 931 -867 1022 l-18 25 175 240
c242 332 464 639 609 840 67 94 146 196 174 228 105 116 205 145 313 91z
m3443 -131 c-4 -27 -13 -100 -21 -163 -9 -63 -22 -155 -30 -205 -7 -49 -21
-139 -30 -200 -133 -890 -347 -1994 -566 -2928 -176 -753 -498 -1934 -670
-2463 l-20 -62 -62 19 c-1744 538 -3683 665 -5535 364 -783 -128 -1551 -331
-2287 -605 -204 -77 -537 -211 -618 -250 -23 -11 -42 -20 -43 -20 -2 0 -21 53
-139 390 -91 260 -130 369 -273 775 -33 94 -131 370 -217 615 -86 245 -183
519 -215 610 -32 91 -129 365 -215 610 -86 245 -183 520 -216 613 -154 435
-184 520 -274 777 -108 308 -184 524 -274 776 -34 95 -61 176 -61 182 0 6 105
-32 233 -83 127 -51 522 -207 877 -348 355 -141 935 -372 1290 -513 789 -313
782 -311 889 -330 98 -17 171 -12 271 18 167 51 309 168 604 498 232 260 1726
1880 1734 1880 4 0 13 -10 21 -22 67 -109 589 -800 870 -1153 368 -462 912
-1105 1150 -1357 82 -88 100 -89 202 -15 64 46 687 499 3119 2269 278 202 507
368 509 368 2 0 1 -21 -3 -47z m-8674 -223 c54 -15 135 -73 309 -222 86 -73
360 -302 607 -508 248 -206 451 -378 452 -382 0 -5 -159 -180 -354 -391 -471
-511 -512 -541 -711 -542 -83 0 -124 5 -165 19 -30 10 -296 115 -590 231 -294
117 -589 234 -655 260 -66 25 -124 50 -129 55 -12 12 135 267 288 500 160 242
326 462 522 690 229 266 310 322 426 290z m4348 -5384 c25 -2 97 -7 160 -11
63 -3 133 -8 155 -10 22 -2 74 -6 115 -10 109 -9 228 -20 310 -30 19 -2 60 -7
90 -10 30 -4 66 -8 80 -10 14 -2 93 -13 175 -25 530 -73 1106 -196 1655 -355
107 -31 199 -60 203 -64 9 -9 -3 -50 -130 -438 -47 -145 -89 -263 -92 -263 -4
0 -58 23 -121 51 -863 382 -1817 636 -2793 744 -588 65 -1327 72 -1922 19
-1111 -99 -2199 -390 -3169 -848 -66 -31 -123 -53 -127 -49 -4 5 -30 72 -58
151 l-50 142 32 14 c18 8 84 36 147 63 976 422 2174 740 3250 864 136 15 173
20 205 24 17 2 68 7 115 10 47 3 94 8 105 10 11 2 70 7 130 10 61 4 156 10
211 15 56 4 166 9 245 9 79 1 146 5 149 8 5 6 845 -4 930 -11z m-693 -559 c4
-2 62 -8 128 -12 65 -4 126 -8 135 -10 8 -1 55 -6 104 -10 49 -4 98 -8 110
-10 11 -2 48 -6 81 -10 143 -15 429 -58 665 -101 372 -67 878 -202 1282 -340
338 -116 838 -324 838 -350 0 -7 -20 -68 -44 -136 -242 -682 -583 -1277 -1059
-1848 -142 -169 -542 -574 -706 -713 -147 -126 -347 -280 -374 -290 -12 -4
-38 -23 -57 -41 -19 -19 -89 -70 -156 -114 -412 -274 -803 -464 -1134 -551
-225 -59 -277 -66 -515 -66 -206 1 -228 2 -338 28 -310 74 -636 223 -1131 519
-903 540 -1475 1014 -1901 1573 -324 426 -546 914 -625 1378 -26 152 -26 167
0 167 11 0 51 15 89 34 239 121 692 309 989 410 662 226 1358 380 2042 451 30
4 69 8 85 10 17 2 68 7 115 10 47 4 103 8 125 10 22 2 108 7 190 10 83 4 152
9 154 11 6 5 898 -3 908 -9z m-2348 -4152 c151 -91 492 -280 627 -348 247
-124 474 -206 687 -249 98 -20 142 -23 342 -23 198 1 247 4 355 24 397 74 825
260 1299 562 l123 79 -6 -92 c-24 -359 -29 -765 -22 -2038 l1 -134 -90 -48
c-195 -103 -444 -201 -689 -273 -736 -213 -1515 -200 -2236 36 -69 23 -132 45
-142 50 -12 6 -18 28 -22 81 -3 40 -13 163 -21 273 -46 589 -133 1208 -254
1805 -33 161 -69 325 -77 353 -7 22 -4 21 125 -58z m3430 -2555 c20 -352 57
-830 86 -1110 8 -74 13 -135 12 -136 -23 -17 -224 -117 -322 -159 -893 -389
-1924 -387 -2821 5 l-139 60 0 659 0 658 84 -28 c253 -86 512 -142 836 -181
168 -20 663 -17 845 6 476 58 911 186 1299 381 58 29 107 52 107 51 1 0 7 -93
13 -206z m156 -1727 c49 -391 103 -752 171 -1141 44 -253 45 -264 27 -278 -41
-31 -408 -206 -539 -258 -563 -221 -1096 -323 -1702 -326 -450 -2 -834 52
-1263 175 -212 61 -269 82 -269 99 0 6 6 45 14 86 86 451 206 1520 206 1833 0
42 4 67 11 67 6 0 47 -16 92 -36 654 -289 1408 -375 2137 -244 332 60 743 200
1005 343 33 18 61 32 63 31 2 -1 23 -159 47 -351z m260 -1625 c18 -102 154
-744 161 -762 8 -21 -332 -197 -577 -299 -464 -193 -1010 -322 -1494 -354
-156 -10 -548 -10 -695 0 -334 24 -691 89 -1020 188 -137 41 -399 135 -413
148 -4 4 17 108 46 232 30 123 71 311 93 417 21 106 44 192 50 192 6 0 44 -11
85 -25 498 -172 1142 -257 1694 -226 679 39 1296 200 1859 486 99 51 184 93
187 94 4 0 14 -41 24 -91z m244 -1115 c153 -623 323 -1214 532 -1849 49 -149
89 -274 89 -279 0 -7 -144 -3 -345 10 -27 2 -126 6 -220 10 -93 3 -204 8 -245
10 -484 24 -1994 24 -2455 0 -38 -2 -140 -6 -225 -10 -85 -3 -200 -8 -255 -10
-225 -12 -552 -31 -675 -40 -30 -2 -100 -7 -155 -10 -55 -3 -140 -10 -190 -15
-49 -5 -135 -12 -190 -16 -55 -3 -107 -7 -115 -9 -8 -1 -57 -6 -108 -9 -51 -4
-100 -9 -110 -10 -9 -2 -55 -7 -102 -11 -47 -4 -98 -8 -115 -10 -87 -11 -185
-17 -185 -11 0 4 8 23 19 44 31 62 235 575 304 768 153 423 304 904 416 1331
l11 42 70 -29 c288 -119 766 -239 1135 -285 291 -36 702 -46 986 -25 691 53
1344 242 1934 559 72 39 133 70 136 70 3 1 29 -97 58 -216z m-129 -2272 c124
-6 333 -15 465 -21 203 -10 1632 -150 1671 -164 7 -3 -4 -64 -33 -178 -24 -95
-45 -178 -47 -184 -3 -8 -22 -7 -68 2 -305 64 -824 147 -1183 189 -27 3 -63 8
-80 10 -16 2 -57 7 -90 10 -33 3 -78 8 -100 10 -22 3 -71 7 -110 10 -38 3 -88
8 -110 10 -22 2 -76 6 -120 10 -44 3 -102 8 -130 10 -58 5 -214 14 -440 25
-169 7 -1198 5 -1300 -4 -33 -2 -114 -8 -180 -11 -66 -3 -142 -8 -170 -10 -27
-2 -86 -7 -130 -10 -44 -3 -102 -7 -130 -10 -113 -10 -172 -16 -205 -20 -19
-2 -66 -7 -105 -11 -38 -3 -77 -8 -85 -9 -8 -1 -44 -6 -80 -10 -36 -3 -76 -8
-90 -10 -14 -2 -83 -11 -155 -20 -286 -35 -865 -136 -1200 -210 -585 -129
-990 -240 -1553 -427 -151 -49 -276 -88 -278 -85 -3 3 -7 18 -10 34 -2 15 -17
125 -34 243 -17 118 -33 224 -36 235 -5 20 31 34 483 200 268 98 504 186 524
196 27 13 116 26 340 49 857 85 1575 130 2644 164 217 7 1914 -4 2125 -13z
m-25 -395 c624 -44 1193 -115 1740 -216 325 -60 318 -58 311 -84 -18 -73 -69
-373 -95 -556 -50 -355 -82 -753 -82 -1013 0 -111 -2 -139 -14 -143 -8 -3 -92
1 -187 10 -489 45 -976 66 -1533 66 -702 0 -1276 -29 -2120 -106 -100 -9 -385
-38 -480 -49 -22 -3 -60 -7 -85 -10 -64 -7 -309 -35 -345 -40 -79 -10 -123
-16 -160 -20 -572 -70 -1559 -220 -2630 -399 -181 -30 -331 -54 -332 -52 -2 2
4 77 12 167 8 90 19 229 23 309 12 240 8 849 -8 1050 -7 102 -14 199 -14 215
l-1 30 300 100 c1297 434 2627 683 4035 754 286 15 1396 6 1665 -13z m955
-2126 c277 -14 615 -39 826 -60 178 -17 181 -18 230 -53 71 -50 156 -91 275
-130 101 -34 160 -48 514 -123 340 -71 499 -163 578 -333 28 -59 32 -78 35
-182 4 -99 -10 -274 -22 -286 -2 -2 -30 3 -62 11 -462 119 -1417 272 -2009
320 -543 45 -775 56 -1330 63 -770 9 -1480 -22 -2320 -103 -77 -7 -689 -73
-735 -79 -19 -3 -91 -12 -160 -20 -145 -19 -105 -13 -480 -65 -775 -107 -1779
-280 -2975 -511 -615 -119 -668 -128 -677 -123 -15 10 -2 379 16 453 40 157
128 245 296 295 75 22 146 33 345 51 284 26 415 55 546 121 36 18 80 45 98 60
30 25 59 31 349 80 2523 425 3837 577 5412 628 188 6 1050 -3 1250 -14z m-450
-900 c979 -42 1883 -158 2725 -352 127 -29 160 -42 150 -58 -1 -3 -6 -36 -9
-75 -4 -38 -9 -81 -11 -95 -2 -14 -6 -52 -10 -85 -3 -33 -8 -76 -10 -95 -8
-73 -14 -127 -20 -185 -3 -33 -8 -71 -10 -85 -2 -14 -7 -56 -10 -95 -4 -38 -8
-77 -10 -85 -2 -8 -7 -51 -11 -95 -3 -44 -8 -82 -9 -85 -2 -3 -6 -41 -10 -85
-3 -44 -8 -87 -10 -95 -2 -8 -7 -46 -11 -85 -3 -38 -8 -77 -9 -85 -2 -8 -6
-49 -10 -90 -31 -354 -58 -445 -148 -504 -85 -55 -153 -56 -562 -12 -1422 155
-3169 188 -5020 96 -1167 -59 -2461 -163 -4337 -350 -274 -28 -505 -50 -514
-50 -16 0 -17 46 -11 653 4 358 7 751 7 873 l0 221 53 11 c28 6 122 25 207 41
85 16 272 52 415 80 2627 507 4153 710 5820 774 199 8 1171 6 1375 -3z"/>
</g>
</svg>
